<?xml version="1.0" standalone="no"?><!DOCTYPE svg PUBLIC "-//W3C//DTD SVG 1.1//EN" "http://www.w3.org/Graphics/SVG/1.1/DTD/svg11.dtd"><svg t="1529899073257" class="icon" style="" viewBox="0 0 1024 1024" version="1.1" xmlns="http://www.w3.org/2000/svg" p-id="1587" xmlns:xlink="http://www.w3.org/1999/xlink" width="64" height="64"><defs><style type="text/css"></style></defs><path d="M1004.54258 512.041554h19.141741c-0.398786 57.026435-9.57087 114.850442-28.712611 169.085372-19.14174 54.234931-47.056778 105.678358-83.346327 150.342419-71.38274 89.726908-174.269594 154.729068-286.727319 179.852602-27.915038 6.38058-56.627648 10.368443-85.340259 11.963588-28.71261 1.595145-57.425221 0.398786-85.739045-2.392718-57.026435-6.38058-113.255297-22.730817-165.09751-47.854351s-98.898992-59.020366-139.57519-99.696564c-40.277412-40.676198-74.174244-88.131763-98.898992-139.973976-24.724748-51.842213-40.676198-108.071076-47.056778-165.496297-3.19029-29.111397-3.987863-57.425221-2.392717-86.137831 1.595145-28.71261 5.981794-57.026435 12.362373-85.340259 6.38058-27.915038 15.153878-55.43129 26.319893-82.149969 11.166015-26.718679 24.724748-52.241 39.878626-76.566961 30.706542-48.651923 69.787595-91.720839 114.850442-127.212816 22.33203-17.945382 46.259206-33.896832 71.781526-47.854351 25.123534-13.957519 51.842213-25.52232 78.959679-34.694404 54.234931-19.14174 112.058938-27.915038 169.484159-27.915038 57.026435 0 114.850442 9.969656 169.085373 29.510183 54.234931 19.14174 105.279572 47.854351 149.943632 83.745114l-11.963587 14.755091c-43.068916-34.694404-92.119625-62.210656-144.360625-80.95361-52.241-18.742954-107.672289-28.313824-162.704793-28.313824-55.032503 0-110.862579 8.773298-163.103579 26.718679-26.319893 9.172084-51.443427 20.338099-75.769389 33.498046C251.235342 92.119625 228.105739 107.672289 206.571281 124.820098c-43.467702 34.295618-80.95361 75.769389-110.463793 122.826167-14.755091 23.528389-27.516252 47.854351-38.283481 73.376672-10.767229 25.52232-19.14174 52.241-25.52232 78.959678-5.981794 27.117465-10.368443 54.633717-11.963588 82.149969-1.595145 27.516252-0.797573 55.032503 1.993931 82.548755 5.981794 55.032503 21.534458 109.267434 45.062847 159.115717 23.927175 49.848282 56.228862 95.708702 95.309916 134.789755 39.081053 39.081053 84.542686 71.781526 134.390968 96.107487 49.848282 23.927175 104.083213 39.878626 159.115717 45.86042 27.516252 3.19029 55.032503 3.987863 82.548755 2.392717 27.516252-1.595145 55.032503-5.583008 82.149969-11.564801 108.469862-23.927175 207.368853-86.536618 275.960089-173.073235 34.694404-43.068916 61.81187-92.119625 80.156038-144.759412 18.344168-51.044641 27.117465-106.475931 27.516251-161.508433z" fill="#2c2c2c" p-id="1588"></path><path d="M985.40084 512.041554h19.14174c-0.398786 55.032503-9.172084 110.463793-27.516251 163.103578-18.344168 52.241-45.461633 101.690495-80.156038 144.759412-68.990022 86.536618-167.490228 149.14606-275.960089 173.073235-27.117465 5.981794-54.633717 9.969656-82.149969 11.564801-27.516252 1.196359-55.032503 0.398786-82.548755-2.392717-55.032503-5.981794-108.868648-21.933244-159.115717-45.86042-49.848282-24.325962-95.309915-57.026435-134.390968-96.107487-39.081053-39.081053-71.38274-84.941473-95.309916-134.789755-23.927175-49.848282-39.479839-104.083213-45.062847-159.115717-3.19029-28.313824-3.987863-55.830076-2.392717-83.346327 1.595145-27.516252 5.583008-55.032503 11.963588-82.149969 6.38058-27.117465 14.755091-53.437358 25.52232-78.959679s23.528389-50.247068 38.283481-73.376671c29.510183-46.657992 66.996091-88.530549 110.463793-122.826167C227.706953 108.469862 250.836555 92.917198 275.162517 79.757251c24.325962-13.159946 49.848282-24.325962 75.769389-33.498045 52.241-18.344168 108.071076-27.117465 163.103579-26.718679 55.032503 0 110.463793 9.57087 162.704793 28.313824 52.241 18.742954 101.291709 45.86042 144.360624 80.95361l-11.963587 14.755091c-41.473771-33.498046-88.530549-59.817938-138.777618-77.76332-50.247068-17.945382-103.28564-27.117465-156.324212-27.117465-53.038572 0-106.475931 8.374511-156.722999 25.921107-25.123534 8.773298-49.449496 19.540527-72.977885 32.301686-23.528389 12.76116-45.461633 27.516252-66.198519 44.265275C176.263525 173.472022 139.973976 213.350647 111.660152 258.413494c-14.356305 22.33203-26.718679 46.259206-37.087122 70.585168-10.368443 24.724748-18.344168 50.247068-24.325962 76.168175-5.981794 25.921107-9.969656 52.241-11.564801 78.959679-1.595145 26.319893-0.797573 53.038572 1.993931 79.358465 5.583008 53.038572 20.736885 104.880785 43.467702 152.735136 23.129603 47.854351 54.234931 92.119625 91.720839 129.605533 37.485908 37.485908 81.352396 68.990022 129.206747 92.119626 47.854351 23.129603 99.696564 38.283481 152.735137 44.265274 26.319893 2.791504 53.038572 3.589076 79.358465 2.392718 26.319893-1.595145 53.038572-5.184221 78.959679-11.166016 104.083213-23.129603 198.994342-83.346328 265.19286-166.293869 33.498046-41.473771 59.419152-88.530549 76.965748-138.777617 18.344168-50.247068 26.718679-103.684427 27.117465-156.324212z" fill="#2c2c2c" p-id="1589"></path><path d="M966.2591 512.041554h19.14174c-0.398786 53.038572-8.773298 106.475931-26.718679 156.722998-17.546595 50.247068-43.467702 97.702633-76.965748 138.777618-66.198519 83.346328-161.109648 143.164266-265.19286 166.293869-25.921107 5.981794-52.241 9.57087-78.959679 11.166015-26.319893 1.196359-53.038572 0.398786-79.358465-2.392718-53.038572-5.981794-104.880785-21.135672-152.735136-44.265274-47.854351-23.129603-91.720839-54.633717-129.206748-92.119625-37.485908-37.884694-68.591236-81.751183-91.720839-129.605534-22.730817-48.253137-37.884694-100.09535-43.467702-152.735136-2.791504-26.319893-3.589076-53.038572-1.993931-79.358465 1.595145-26.319893 5.583008-53.038572 11.564802-78.959679s13.957519-51.443427 24.325961-76.168175c10.368443-24.724748 22.730817-48.253137 37.087122-70.585167 28.313824-45.062847 64.603374-84.941473 106.077144-118.040732 20.736885-16.350237 43.068916-31.504114 66.198519-44.265275 23.528389-12.76116 47.854351-23.528389 72.977885-32.301687 50.247068-17.546595 103.684427-25.921107 156.722999-25.921106 53.038572 0 106.475931 9.57087 156.324212 27.117465a475.752004 475.752004 0 0 1 138.777618 77.76332l-11.963588 14.755092c-39.878626-31.902901-84.941473-57.425221-133.19461-74.57303-48.253137-17.147809-99.297778-25.921107-150.342418-26.319893-101.690495-0.398786-204.178563 34.694404-283.935815 98.500205-39.878626 31.504114-74.57303 69.787595-102.089282 113.255297-13.558733 21.534458-25.52232 44.265274-35.491977 67.793664s-17.546595 47.854351-23.528389 72.977885c-5.583008 24.724748-9.57087 50.247068-10.767229 75.769388-1.196359 25.52232-0.797573 51.044641 1.993931 76.168175 5.583008 50.645855 19.939313 100.494137 41.872557 146.753343 22.33203 45.86042 51.842213 88.131763 88.131763 124.421312 35.890763 35.890763 78.162106 66.198519 124.022526 88.530549 45.86042 21.933244 95.708702 36.688336 146.354556 42.271343 25.52232 2.791504 51.044641 3.589076 76.168175 2.392718 25.52232-1.196359 50.645855-5.184221 75.769389-10.767229 100.09535-22.33203 191.018617-79.757251 254.425632-159.514503 31.902901-39.878626 57.026435-85.340259 73.775457-133.19461 17.546595-48.253137 25.52232-99.696564 25.921107-150.342418z" fill="#2c2c2c" p-id="1590"></path><path d="M947.11736 512.041554h19.14174c-0.398786 51.044641-8.374511 102.089282-25.522321 150.342418-17.147809 48.253137-41.872557 93.71477-73.775457 133.19461-63.407015 79.757251-154.729068 137.581259-254.425632 159.514503-24.724748 5.583008-50.247068 9.172084-75.769389 10.767229-25.52232 1.196359-51.044641 0.398786-76.168175-2.392718-50.645855-5.583008-100.494137-20.338099-146.354556-42.271343-45.86042-22.33203-88.131763-52.639786-124.022526-88.530549-35.890763-36.289549-65.799732-78.560893-88.131762-124.421312-21.933244-46.259206-36.289549-96.107488-41.872557-146.753343-2.791504-25.52232-3.19029-51.044641-1.993932-76.168175 1.196359-25.52232 5.184221-50.645855 10.767229-75.769388 5.583008-24.724748 13.558733-49.449496 23.52839-72.977885 9.969656-23.528389 21.933244-46.259206 35.491976-67.793664C155.127854 225.314235 189.822258 187.030754 229.700884 155.52664c79.757251-63.805801 182.245319-98.898992 283.935815-98.101419 51.044641 0 102.089282 9.172084 150.342418 26.319893 48.253137 17.147809 93.315984 42.271343 133.19461 74.57303l-11.963588 14.755091c-37.884694-30.706542-81.352396-55.032503-127.212816-71.38274-46.259206-16.350237-94.911129-24.724748-143.961838-25.123534-97.702633-0.797573-195.804052 32.700473-271.972227 94.113557-38.283481 30.307756-71.781526 66.996091-97.702633 108.469862-13.159946 20.736885-24.325962 42.271343-33.896832 65.002159-9.57087 22.730817-16.749023 45.86042-22.33203 69.787595-5.583008 23.927175-9.172084 48.253137-10.368443 72.579099-1.196359 24.325962-0.797573 48.651923 1.993931 72.977885 5.184221 48.651923 18.742954 96.506274 39.878626 140.372762 21.135672 43.866488 49.848282 84.542686 84.1439 119.237091 34.694404 34.694404 74.971816 63.407015 118.838305 84.941473 44.265274 21.135672 91.720839 35.093191 140.372762 40.676198 24.325962 2.791504 48.651923 3.589076 72.977885 2.392718 24.325962-1.196359 48.651923-4.785435 72.579099-9.969657 95.708702-21.135672 183.042892-76.566961 243.658402-152.735136 30.706542-37.884694 54.633717-81.751183 70.585168-127.611602 16.350237-47.056778 23.927175-96.107488 24.325962-144.759411z" fill="#2c2c2c" p-id="1591"></path><path d="M927.975619 512.041554h19.141741c-0.398786 48.651923-7.975725 97.702633-24.325962 143.961838-16.350237 46.259206-40.277412 89.726908-70.585168 127.611602-61.014297 76.566961-148.348487 131.599465-243.658402 152.735137-23.927175 5.184221-48.253137 8.773298-72.579099 9.969656-24.325962 1.196359-48.651923 0.398786-72.977885-2.392718-48.651923-5.184221-96.107488-19.540527-140.372762-40.676198-43.866488-21.534458-84.1439-50.247068-118.838305-84.941472-34.295618-34.694404-63.008229-74.971816-84.1439-119.237091-21.135672-44.265274-34.694404-91.720839-39.878626-140.372762-2.392718-24.325962-3.19029-48.651923-1.993931-72.977885 1.196359-24.325962 5.184221-48.651923 10.368443-72.579099 5.583008-23.927175 12.76116-47.056778 22.33203-69.787595 9.57087-22.730817 20.736885-44.265274 33.896832-65.00216 25.921107-40.676198 59.020366-77.364534 97.303847-107.672289 76.168175-61.014297 174.269594-94.512343 271.972227-94.113557 48.651923 0 97.702633 8.773298 143.961838 25.123534 46.259206 16.350237 89.328121 40.676198 127.212816 71.38274l-11.963588 14.755092c-36.289549-29.510183-77.76332-52.639786-121.629808-68.19245-43.866488-15.552664-90.923267-23.927175-137.581258-23.927175-93.315984-0.797573-187.030754 31.504114-260.00864 89.726907-36.688336 29.111397-68.591236 64.204587-93.315984 103.684427-12.76116 19.939313-23.528389 40.676198-32.700473 62.210656-9.172084 21.534458-15.95145 43.866488-21.534458 66.597305-5.184221 22.730817-8.773298 45.86042-9.969656 69.388809-1.196359 23.129603-0.797573 46.657992 1.595145 69.787595 5.184221 46.657992 17.945382 92.119625 38.283481 134.390968C156.324213 733.766712 183.441678 772.448979 216.540937 805.548238c33.099259 33.099259 71.38274 60.615511 113.654083 80.953611 84.1439 40.676198 182.245319 52.241 273.567373 31.105328 91.322053-20.338099 175.067167-72.977885 233.28996-146.354557 29.510183-36.289549 52.241-78.162106 67.793663-122.028594 15.552664-43.866488 22.730817-90.52448 23.129603-137.182472z" fill="#2c2c2c" p-id="1592"></path><path d="M908.833879 512.041554h19.14174c-0.398786 46.657992-7.576939 93.71477-23.528389 137.581258-15.552664 44.265274-38.283481 85.739045-67.793664 122.028595-58.222793 72.977885-141.569121 126.016457-233.28996 146.354556-91.322053 21.135672-189.024686 9.57087-273.567372-31.105328-41.872557-20.338099-80.554824-48.253137-113.654083-80.95361-33.099259-33.099259-60.216725-71.781526-80.554824-114.05287-19.939313-42.271343-33.099259-87.732976-38.28348-134.390968-2.392718-23.129603-2.791504-46.657992-1.595145-69.787595 1.196359-23.528389 4.785435-46.657992 9.969656-69.388809 5.184221-22.730817 12.362374-45.062847 21.534458-66.597305 9.172084-21.534458 19.939313-42.271343 32.301687-62.210656 24.724748-39.479839 56.627648-74.57303 93.315984-103.684426 72.977885-58.62158 166.692655-90.52448 260.008639-89.726908 46.657992 0 93.315984 8.374511 137.581259 23.927175 44.265274 15.552664 85.340259 38.682267 121.629808 68.19245l-11.963588 14.755092c-34.694404-27.915038-74.174244-50.247068-116.046801-65.00216-41.872557-14.755091-86.536618-22.730817-131.200678-22.730817-89.328121-0.398786-178.257457 29.908969-248.045052 85.739045-35.093191 27.516252-65.400946 61.014297-88.929335 98.898992-11.963588 18.742954-22.33203 38.682267-31.105328 59.020366-8.773298 20.736885-15.552664 41.872557-20.338099 63.805801-4.785435 21.534458-8.374511 43.866488-9.57087 66.198519-1.196359 22.33203-0.797573 44.664061 1.595145 66.597305 4.785435 44.265274 17.147809 87.732976 36.289549 128.010388 19.540527 40.277412 45.461633 76.965748 76.965748 108.868648 31.504114 31.504114 68.19245 57.824007 108.469862 77.364534 80.156038 39.081053 173.870808 49.848282 260.806211 29.908969 87.33419-19.540527 166.692655-69.787595 222.522732-139.57519 27.915038-34.694404 49.848282-74.57303 64.603373-116.445587 15.552664-42.670129 22.33203-87.33419 22.730817-131.599464z" fill="#2c2c2c" p-id="1593"></path><path d="M889.692139 512.041554h19.14174c-0.398786 44.664061-7.178153 89.328121-22.33203 131.200678-14.755091 41.872557-36.688336 81.751183-64.603374 116.445587-55.43129 69.787595-135.188541 120.034663-222.522731 139.57519-86.935404 19.939313-180.650174 9.172084-260.806212-29.90897-40.277412-19.540527-76.965748-45.86042-108.469862-77.364533-31.504114-31.504114-57.425221-68.591236-76.965747-108.868648-19.14174-40.277412-31.504114-83.745114-36.28955-128.010389-2.392718-22.33203-2.791504-44.664061-1.595145-66.597305 1.196359-22.33203 4.785435-44.265274 9.57087-66.198518 5.184221-21.534458 11.564801-43.068916 20.338099-63.805801 8.773298-20.736885 19.14174-40.277412 31.105328-59.020366 23.927175-37.884694 54.234931-71.38274 88.929336-98.898992 69.787595-55.830076 159.115716-86.137831 248.045051-85.739045 44.664061 0 89.328121 7.975725 131.200679 22.730817s81.352396 37.087122 116.0468 65.002159l-11.963587 14.755092c-33.099259-26.718679-70.585167-47.854351-110.463793-61.81187-39.878626-14.356305-82.548755-21.534458-124.820099-21.534458-84.941473-0.398786-169.882945 28.313824-236.081464 81.352397-33.099259 26.718679-61.81187 58.222793-84.542686 94.512342-11.166015 17.945382-21.135672 36.688336-29.510183 56.228863-8.374511 19.540527-14.755091 39.878626-19.540527 60.615511-9.57087 41.473771-11.963588 84.1439-7.576938 126.415243 4.386649 42.271343 16.350237 83.745114 34.694404 122.028594 18.344168 38.283481 43.068916 73.376671 72.977885 103.684427 29.908969 29.908969 65.00216 55.032503 103.28564 73.775458 76.566961 37.087122 165.496297 47.455565 248.443838 28.313824 82.947541-18.344168 158.71693-66.198519 211.755502-132.795824 26.718679-33.099259 47.455565-70.983954 61.413084-110.862579 14.356305-40.277412 20.736885-82.947541 21.135672-125.218884z" fill="#2c2c2c" p-id="1594"></path><path d="M870.550398 512.041554h19.141741c-0.398786 42.271343-6.779366 84.941473-21.135672 124.820098-13.957519 39.878626-34.694404 77.76332-61.413084 110.862579-53.038572 66.597305-128.807961 114.451656-211.755502 132.795824-82.947541 19.14174-171.876877 8.773298-248.443838-28.313825-38.283481-18.742954-72.977885-43.467702-103.28564-73.775457-29.908969-30.307756-54.633717-65.400946-72.977885-103.684427-18.344168-38.283481-29.908969-79.757251-34.694404-122.028594-4.386649-41.872557-1.993931-84.941473 7.576938-126.016457 4.785435-20.736885 11.166015-41.074984 19.540527-60.615511 8.374511-19.540527 17.945382-38.283481 29.510183-56.228863 22.730817-35.890763 51.443427-67.793664 84.941473-94.113556 66.198519-53.038572 151.139991-82.149969 236.081464-81.352397 42.670129 0 84.941473 7.576939 124.820098 21.534458 39.878626 14.356305 77.364534 35.093191 110.463793 61.81187l-11.963588 14.755092c-31.504114-25.123534-66.996091-45.461633-104.880785-58.62158-37.884694-13.558733-78.162106-20.338099-118.439518-20.736885-80.554824-0.398786-161.109648 27.117465-224.117877 77.364533-31.504114 25.123534-59.020366 55.43129-80.554824 89.328122-10.767229 17.147809-20.338099 35.093191-27.915037 53.437358-7.975725 18.742954-13.957519 37.884694-18.344168 57.425221-4.386649 19.540527-7.576939 39.479839-8.773298 59.817939-1.196359 19.939313-0.797573 40.277412 1.595145 60.216724 4.386649 39.878626 15.552664 79.358465 32.700473 115.648015 17.546595 36.289549 41.074984 69.787595 69.388809 98.101419 28.71261 28.313824 61.81187 52.241 98.101419 69.787595 36.289549 17.546595 75.370603 29.111397 115.648014 33.498045 19.939313 2.392718 40.277412 2.791504 60.216725 1.993932 20.338099-1.196359 40.277412-3.987863 59.817939-8.374512 78.560893-17.546595 150.741205-63.008229 200.988273-126.016457 25.52232-31.504114 45.062847-67.394877 58.222793-105.279572 13.558733-37.485908 19.540527-77.76332 19.939313-118.040731z" fill="#2c2c2c" p-id="1595"></path><path d="M851.408658 512.041554h19.14174c-0.398786 40.277412-6.38058 80.554824-20.338099 118.439518-13.558733 37.884694-33.099259 73.775457-58.222793 105.279572-50.247068 63.008229-122.427381 108.469862-200.988274 126.016457-19.540527 4.386649-39.479839 7.178153-59.817938 8.374511-20.338099 0.797573-40.277412 0.398786-60.216725-1.993931-40.277412-4.386649-79.358465-15.95145-115.648014-33.498046-36.289549-17.546595-69.388809-41.473771-98.101419-69.787595-28.313824-28.71261-51.842213-62.210656-69.388809-98.101419-17.147809-36.289549-28.71261-75.769389-32.700473-115.648014-1.993931-19.939313-2.392718-40.277412-1.595145-60.216725 1.196359-20.338099 3.987863-40.277412 8.773297-59.817939 4.386649-19.540527 10.767229-39.081053 18.344168-57.425221 7.975725-18.742954 17.147809-36.289549 27.915038-53.437358 21.534458-34.295618 49.05071-64.204587 80.554824-89.328121 63.008229-50.645855 143.563052-77.76332 224.117876-77.364534 40.277412 0 80.554824 7.178153 118.439519 20.736885 37.884694 13.558733 73.775457 33.498046 104.880785 58.62158l-11.963588 14.755091c-29.908969-23.927175-63.407015-43.068916-99.297778-55.830076-35.890763-12.76116-73.775457-19.540527-112.058938-19.540526-76.566961-0.398786-152.33635 25.52232-212.154288 73.376671-29.908969 23.528389-55.830076 52.241-76.168175 84.542686-10.368443 15.95145-19.14174 33.099259-26.319893 50.645855-7.576939 17.546595-13.159946 35.890763-17.546595 54.234931-4.386649 18.742954-7.178153 37.485908-7.975726 56.627648-1.196359 19.14174-0.398786 38.283481 1.595145 57.425221 3.987863 37.884694 14.755091 74.971816 31.105328 109.666221 16.749023 34.295618 38.682267 65.799732 65.799733 92.917198 27.117465 27.117465 58.62158 49.449496 92.917198 66.198518 34.295618 16.350237 71.38274 27.516252 109.267434 31.504115 19.14174 1.993931 38.283481 2.791504 57.026435 1.595145 19.14174-1.196359 37.884694-3.589076 56.627648-7.975725 74.57303-16.350237 142.76548-59.419152 190.221044-119.237091 23.927175-29.510183 42.670129-63.805801 55.032504-99.696564 12.76116-35.890763 18.344168-74.174244 18.742954-112.058938z" fill="#2c2c2c" p-id="1596"></path><path d="M832.266918 512.041554h19.14174c-0.398786 38.283481-6.38058 76.566961-19.14174 112.457724-12.76116 35.890763-31.105328 69.787595-55.032504 99.696564-47.455565 59.817938-115.648014 102.886854-190.221044 119.237091-18.742954 3.987863-37.485908 6.779366-56.627649 7.975725-19.14174 0.797573-38.283481 0.398786-57.026434-1.595145-37.884694-3.987863-74.971816-15.153878-109.267435-31.504114-34.295618-16.749023-65.799732-39.081053-92.917197-66.198519-26.718679-27.117465-49.05071-58.62158-65.799733-92.917198-16.350237-34.295618-27.117465-71.38274-31.105328-109.66622-1.993931-19.14174-2.392718-38.283481-1.595145-57.425221 0.797573-19.14174 3.987863-37.884694 7.975725-56.627649 4.386649-18.742954 9.969656-36.688336 17.546596-54.234931 7.576939-17.546595 16.350237-34.295618 26.319892-50.645854 20.338099-32.301687 46.259206-61.014297 76.168176-84.542687 59.817938-47.854351 135.587327-73.775457 212.154288-73.376671 38.283481 0 76.168175 6.779366 112.058938 19.540527s69.787595 31.504114 99.297778 55.830076l-11.963588 14.755091c-27.915038-22.730817-59.817938-40.676198-93.71477-52.639786s-69.787595-18.344168-106.077144-18.344168c-72.180312-0.398786-143.961839 23.927175-200.190701 68.990023-28.313824 22.33203-53.038572 49.449496-72.180313 79.757251-9.57087 15.153878-17.945382 31.105328-25.123534 47.854351-7.178153 16.749023-12.362374 33.896832-16.350236 51.443427-3.987863 17.546595-6.779366 35.491977-7.576939 53.437358-0.797573 17.945382-0.398786 36.289549 1.196359 54.234931 3.987863 35.890763 13.957519 70.585167 29.510183 103.285641 15.552664 32.301687 36.688336 62.210656 62.210656 87.732976s55.032503 46.657992 87.33419 62.609443c32.301687 15.552664 67.394877 25.921107 103.28564 29.908969 17.945382 1.993931 35.890763 2.392718 54.234931 1.595145 17.945382-0.797573 35.890763-3.589076 53.437359-7.576939 70.186381-15.552664 134.390968-56.228862 179.453815-112.457724 22.730817-27.915038 40.277412-60.216725 52.241-94.113557 1.196359-4.386649 3.19029-8.374511 4.386649-12.76116l3.589076-13.159947 3.19029-13.159946c1.196359-4.386649 1.595145-8.773298 2.392718-13.159947 3.19029-18.344168 4.785435-36.289549 4.785435-54.23493z" fill="#2c2c2c" p-id="1597"></path><path d="M813.125177 512.041554h19.141741c0 17.945382-1.595145 35.890763-4.785435 53.836144l-2.392718 13.159947-3.19029 13.159946-3.589076 13.159947c-1.196359 4.386649-2.791504 8.374511-4.386649 12.76116-11.963588 33.896832-29.510183 65.799732-52.241 94.113556-45.062847 56.627648-109.267434 96.90506-179.453815 112.457725-17.546595 3.987863-35.491977 6.38058-53.437359 7.576939-17.945382 0.797573-36.289549 0.398786-54.234931-1.595145-35.890763-3.987863-70.585167-14.356305-103.28564-29.90897-32.301687-15.95145-61.81187-37.087122-87.33419-62.609442-25.52232-25.52232-46.259206-55.43129-62.210656-87.732976-15.552664-32.301687-25.52232-67.394877-29.510183-103.285641-1.993931-17.945382-2.392718-35.890763-1.196359-54.234931 0.797573-17.945382 3.589076-35.890763 7.576939-53.437358 3.987863-17.546595 9.57087-34.694404 16.350236-51.443427 7.178153-16.749023 15.552664-32.700473 25.123534-47.854351 19.14174-30.307756 43.866488-57.425221 72.180313-79.757251C369.276074 215.344579 441.0576 191.018617 513.237912 191.417403c36.289549 0 72.180312 6.38058 106.077145 18.344168 33.896832 11.963588 65.799732 29.908969 93.71477 52.639786l-11.963588 14.755091c-52.639786-42.670129-119.635877-66.597305-187.828327-66.597304-68.19245-0.398786-135.188541 22.730817-188.227113 65.002159-26.718679 21.135672-49.848282 46.657992-67.793663 74.971817-9.172084 14.356305-16.749023 29.510183-23.52839 45.062847-6.38058 15.552664-11.564801 31.902901-15.552664 48.253137-3.589076 16.350237-6.38058 33.099259-7.178152 50.247068-0.797573 17.147809-0.398786 33.896832 1.196359 51.044641 3.589076 33.498046 13.159946 66.597305 27.516251 96.90506 14.755091 30.307756 34.295618 58.62158 58.222794 82.548755s51.842213 43.866488 82.149969 58.62158c30.307756 14.356305 63.407015 24.325962 96.90506 27.915038 16.749023 1.993931 33.896832 2.392718 51.044641 1.595145 17.147809-0.797573 33.896832-3.19029 50.247068-7.178153 65.799732-14.755091 126.415243-52.639786 168.686587-106.077144 21.534458-26.319893 37.884694-56.627648 49.050709-88.131763 1.196359-3.987863 2.791504-7.975725 3.987863-11.963587l3.589076-12.362374 2.791504-12.362374c0.797573-3.987863 1.595145-8.374511 2.392717-12.362374 2.791504-16.350237 4.386649-33.498046 4.386649-50.247068z" fill="#2c2c2c" p-id="1598"></path><path d="M774.841697 512.041554h19.14174c0 15.95145-1.595145 31.902901-3.987863 47.455564-0.797573 3.987863-1.196359 7.975725-1.993931 11.564802l-2.791504 11.564801-3.19029 11.564801c-1.196359 3.987863-2.392718 7.576939-3.589076 11.166016-10.368443 29.908969-25.921107 57.824007-45.86042 82.548755-39.479839 49.848282-96.506274 85.340259-157.919357 99.297778-15.552664 3.589076-31.105328 5.583008-47.056778 6.779366-15.95145 0.797573-31.902901 0.398786-47.854351-1.595145-31.504114-3.589076-62.210656-12.76116-90.923267-26.319893-28.313824-13.957519-54.633717-32.700473-76.965747-55.032503-22.33203-22.730817-40.676198-49.05071-54.633717-77.364534-13.558733-28.71261-22.33203-59.419152-25.921107-90.923267-1.595145-15.95145-1.993931-31.902901-1.196359-47.854351s3.19029-31.504114 6.779366-47.056778c3.589076-15.552664 8.374511-30.706542 14.356306-45.062847 5.981794-14.755091 13.558733-28.71261 21.933244-41.872557 16.749023-26.718679 38.682267-50.645855 63.407015-70.585167 12.362374-9.969656 25.52232-18.742954 39.479839-26.319893 13.957519-7.576939 28.313824-13.957519 43.467702-19.14174 29.908969-10.368443 61.413084-15.153878 93.315984-15.552664 63.805801 0 126.415243 22.33203 175.864739 62.609442l-11.963587 14.755091c-46.259206-37.485908-104.083213-58.222793-163.901152-58.222793-29.908969 0-59.419152 4.386649-86.935404 14.356305-13.957519 4.785435-27.516252 10.767229-40.277412 17.945382-13.159946 7.178153-25.123534 15.552664-36.688335 24.724748-23.129603 18.344168-43.467702 40.676198-59.020366 65.799732-7.975725 12.362374-14.755091 25.52232-20.3381 39.081053-5.583008 13.558733-9.969656 27.516252-13.558732 41.872557-3.19029 14.356305-5.583008 29.111397-6.38058 43.866488-0.797573 14.755091-0.398786 29.908969 1.196358 44.664061 3.19029 29.510183 11.564801 57.824007 23.927176 84.542686 12.76116 26.319893 30.307756 51.044641 51.044641 72.180313 21.135672 20.736885 45.461633 38.283481 71.781526 51.443427 26.718679 12.76116 55.032503 21.135672 84.542686 24.325962 14.755091 1.595145 29.510183 1.993931 44.664061 1.196358 14.755091-0.797573 29.510183-2.791504 43.866488-5.981793 57.425221-12.76116 110.463793-45.86042 147.152129-92.518412 18.742954-23.129603 33.099259-49.449496 42.670129-76.965748 1.196359-3.589076 2.392718-6.779366 3.589077-10.368442l3.19029-10.767229 2.392717-10.767229c0.797573-3.589076 1.196359-7.178153 1.993932-10.767229 1.993931-14.755091 3.19029-29.510183 3.19029-44.265274z" fill="#2c2c2c" p-id="1599"></path><path d="M793.983437 512.041554h19.14174c0 17.147809-1.595145 33.896832-4.386649 50.645854-0.797573 3.987863-1.196359 8.374511-2.392717 12.362374l-2.791504 12.362374-3.589076 12.362374c-1.196359 3.987863-2.791504 7.975725-3.987863 11.963588-11.166015 31.902901-27.516252 61.81187-49.050709 88.131762-42.271343 53.038572-102.886854 91.322053-168.686587 106.077145-16.350237 3.589076-33.099259 5.981794-50.247068 7.178152-17.147809 0.797573-33.896832 0.398786-51.044641-1.595145-33.498046-3.589076-66.597305-13.558733-96.90506-27.915038-30.307756-14.755091-58.222793-34.694404-82.149969-58.621579-23.927175-23.927175-43.467702-52.241-58.222794-82.548756-14.356305-30.706542-23.927175-63.407015-27.516251-96.90506-1.595145-16.749023-1.993931-33.896832-1.196359-51.044641 0.797573-17.147809 3.589076-33.896832 7.178152-50.247068 3.987863-16.350237 8.773298-32.700473 15.552664-48.253137 6.779366-15.552664 14.356305-30.706542 23.52839-45.062847 17.945382-28.71261 41.074984-54.234931 67.793663-74.971816 53.038572-42.271343 120.43345-65.400946 188.227113-65.00216 68.19245 0 134.789755 23.927175 187.828327 66.597305l-11.963588 14.755091c-49.449496-39.878626-112.058938-62.210656-175.864739-62.609442-31.902901 0-63.407015 4.785435-93.315984 15.552664-14.755091 5.184221-29.510183 11.564801-43.467702 19.14174s-27.117465 16.350237-39.479839 26.319893c-24.724748 19.540527-46.657992 43.467702-63.407015 70.585168-8.374511 13.558733-15.95145 27.516252-21.933244 41.872556-5.981794 14.755091-10.767229 29.510183-14.356305 45.062847-3.589076 15.552664-5.981794 31.105328-6.779367 47.056779-0.797573 15.95145-0.398786 31.902901 1.196359 47.854351 3.589076 31.504114 12.362374 62.210656 25.921107 90.923266 13.957519 28.313824 32.301687 54.633717 54.633717 77.364534 22.33203 22.33203 48.651923 41.074984 76.965747 55.032503 28.71261 13.558733 59.020366 22.730817 90.923267 26.319893 15.95145 1.595145 31.902901 1.993931 47.854351 1.595145 15.95145-0.797573 31.504114-3.19029 47.056778-6.779366 61.81187-13.558733 118.439518-49.449496 157.919358-99.297778 19.939313-24.724748 35.491977-53.038572 45.860419-82.548755 1.196359-3.589076 2.791504-7.576939 3.589077-11.166015l3.19029-11.564802 2.791503-11.564801c0.797573-3.987863 1.595145-7.975725 1.993932-11.564802 1.993931-16.350237 3.589076-31.902901 3.589076-47.85435z" fill="#2c2c2c" p-id="1600"></path><path d="M1010.923161 502.86947H511.642767" fill="#2c2c2c" p-id="1601"></path><path d="M511.642767 378.448158h498.881607v19.14174H511.642767z" fill="#2c2c2c" p-id="1602"></path><path d="M511.642767 397.589898h498.881607v19.14174H511.642767z" fill="#2c2c2c" p-id="1603"></path><path d="M511.642767 416.731638h498.881607v19.141741H511.642767z" fill="#2c2c2c" p-id="1604"></path><path d="M511.642767 435.873379h498.881607v19.14174H511.642767z" fill="#2c2c2c" p-id="1605"></path><path d="M511.642767 455.015119h498.881607v19.14174H511.642767z" fill="#2c2c2c" p-id="1606"></path><path d="M511.642767 474.156859h498.881607v19.14174H511.642767z" fill="#2c2c2c" p-id="1607"></path><path d="M511.642767 493.298599h498.881607v19.141741H511.642767z" fill="#2c2c2c" p-id="1608"></path><path d="M511.642767 512.44034h498.881607v19.14174H511.642767z" fill="#2c2c2c" p-id="1609"></path><path d="M511.642767 531.58208h498.881607v19.14174H511.642767z" fill="#2c2c2c" p-id="1610"></path><path d="M511.642767 550.72382h498.881607v19.141741H511.642767z" fill="#2c2c2c" p-id="1611"></path><path d="M511.642767 569.865561h498.881607v19.14174H511.642767zM511.642767 608.149041h498.881607v19.141741H511.642767z" fill="#2c2c2c" p-id="1612"></path><path d="M511.642767 589.007301h498.881607v19.14174H511.642767z" fill="#2c2c2c" p-id="1613"></path></svg>